<?xml version="1.0" encoding="utf-8"?>
<!-- Generator: Adobe Illustrator 16.0.1, SVG Export Plug-In . SVG Version: 6.00 Build 0)  -->
<!DOCTYPE svg PUBLIC "-//W3C//DTD SVG 1.1//EN" "http://www.w3.org/Graphics/SVG/1.1/DTD/svg11.dtd">
<svg version="1.1" id="Layer_1" xmlns:sketch="http://www.bohemiancoding.com/sketch/ns"
	 xmlns="http://www.w3.org/2000/svg" xmlns:xlink="http://www.w3.org/1999/xlink" x="0px" y="0px" width="846px" height="232px"
	 viewBox="0 0 846 232" enable-background="new 0 0 846 232" xml:space="preserve">
<title>Protecting What Matt + Liberty Insurance + Path 15</title>
<desc>Created with Sketch.</desc>
<g id="Page-1" sketch:type="MSPage">
	<g id="Protecting-What-Matt-_x2B_-Liberty-Insurance-_x2B_-Path-15" sketch:type="MSLayerGroup">
		<path id="Protecting-What-Matt" sketch:type="MSShapeGroup" fill="#999999" d="M240.798,189.191c0,2.416-0.819,4.268-2.458,5.555
			c-1.639,1.287-3.96,1.932-6.965,1.932h-3.858V207h-1.741v-24.986h6.111C237.828,182.014,240.798,184.406,240.798,189.191
			L240.798,189.191z M227.518,195.173h3.431c2.811,0,4.842-0.464,6.094-1.393c1.251-0.929,1.877-2.436,1.877-4.521
			c0-1.926-0.592-3.353-1.775-4.281c-1.183-0.928-3.016-1.393-5.497-1.393h-4.131V195.173z M253.106,188.063
			c0.785,0,1.627,0.08,2.526,0.239l-0.325,1.623c-0.773-0.193-1.576-0.29-2.407-0.29c-1.582,0-2.879,0.673-3.892,2.017
			c-1.013,1.345-1.519,3.042-1.519,5.094V207h-1.69v-18.578h1.434l0.171,3.35h0.12c0.762-1.367,1.576-2.326,2.441-2.879
			S251.877,188.063,253.106,188.063L253.106,188.063z M274.051,197.686c0,3.03-0.734,5.397-2.202,7.101
			c-1.468,1.704-3.494,2.556-6.077,2.556c-1.627,0-3.062-0.394-4.302-1.18c-1.241-0.786-2.191-1.914-2.851-3.384
			c-0.66-1.47-0.99-3.167-0.99-5.093c0-3.031,0.734-5.393,2.202-7.084c1.468-1.691,3.482-2.538,6.042-2.538
			c2.549,0,4.549,0.857,6,2.572C273.325,192.351,274.051,194.7,274.051,197.686L274.051,197.686z M259.405,197.686
			c0,2.552,0.56,4.543,1.681,5.973s2.706,2.145,4.754,2.145c2.049,0,3.633-0.715,4.754-2.145c1.121-1.43,1.681-3.421,1.681-5.973
			c0-2.563-0.566-4.552-1.698-5.965c-1.132-1.412-2.723-2.119-4.771-2.119c-2.048,0-3.627,0.703-4.737,2.111
			C259.959,193.119,259.405,195.11,259.405,197.686L259.405,197.686z M284.088,205.838c1.07,0,2.003-0.092,2.8-0.273v1.367
			c-0.819,0.273-1.764,0.41-2.834,0.41c-1.639,0-2.848-0.439-3.627-1.316c-0.779-0.877-1.169-2.256-1.169-4.136v-11.997h-2.749
			V188.9l2.749-0.769l0.854-4.204h0.871v4.494h5.445v1.471h-5.445v11.758c0,1.424,0.25,2.479,0.751,3.162
			C282.233,205.496,283.018,205.838,284.088,205.838L284.088,205.838z M298.393,207.342c-2.697,0-4.799-0.832-6.307-2.496
			c-1.508-1.663-2.262-3.993-2.262-6.989c0-2.962,0.728-5.335,2.185-7.118c1.457-1.783,3.42-2.675,5.889-2.675
			c2.185,0,3.909,0.764,5.172,2.29c1.263,1.527,1.895,3.601,1.895,6.221v1.367h-13.366c0.023,2.553,0.618,4.5,1.784,5.846
			c1.167,1.344,2.836,2.016,5.01,2.016c1.059,0,1.989-0.074,2.791-0.222s1.818-0.468,3.047-0.957v1.538
			c-1.047,0.455-2.014,0.766-2.902,0.932C300.441,207.259,299.462,207.342,298.393,207.342L298.393,207.342z M297.897,189.567
			c-1.787,0-3.22,0.59-4.301,1.769c-1.081,1.18-1.713,2.88-1.895,5.102h11.471c0-2.153-0.466-3.836-1.4-5.05
			C300.839,190.174,299.548,189.567,297.897,189.567L297.897,189.567z M317.494,207.342c-2.651,0-4.729-0.838-6.23-2.513
			s-2.253-4.011-2.253-7.007c0-3.076,0.779-5.472,2.338-7.187c1.56-1.715,3.693-2.572,6.401-2.572c1.604,0,3.142,0.279,4.609,0.837
			l-0.461,1.504c-1.604-0.535-2.999-0.803-4.183-0.803c-2.275,0-4,0.703-5.172,2.111c-1.172,1.406-1.759,3.432-1.759,6.075
			c0,2.507,0.587,4.469,1.759,5.888c1.172,1.418,2.811,2.127,4.916,2.127c1.685,0,3.249-0.301,4.694-0.905v1.572
			C320.971,207.051,319.417,207.342,317.494,207.342L317.494,207.342z M331.594,205.838c1.07,0,2.003-0.092,2.8-0.273v1.367
			c-0.819,0.273-1.764,0.41-2.834,0.41c-1.639,0-2.848-0.439-3.627-1.316s-1.169-2.256-1.169-4.136v-11.997h-2.749V188.9
			l2.749-0.769l0.854-4.204h0.87v4.494h5.445v1.471h-5.445v11.758c0,1.424,0.25,2.479,0.751,3.162S330.524,205.838,331.594,205.838
			L331.594,205.838z M340.095,207h-1.689v-18.578h1.689V207z M338.166,183.262c0-1.094,0.358-1.641,1.075-1.641
			c0.354,0,0.629,0.143,0.828,0.427s0.299,0.689,0.299,1.214c0,0.512-0.1,0.916-0.299,1.213s-0.475,0.444-0.828,0.444
			C338.524,184.919,338.166,184.366,338.166,183.262L338.166,183.262z M359.248,207v-12.049c0-1.869-0.393-3.228-1.178-4.076
			c-0.786-0.85-2.003-1.273-3.653-1.273c-2.22,0-3.844,0.561-4.874,1.684c-1.029,1.122-1.545,2.942-1.545,5.461V207h-1.689v-18.578
			h1.434l0.324,2.547h0.103c1.206-1.937,3.352-2.905,6.436-2.905c4.211,0,6.316,2.262,6.316,6.785V207H359.248z M381.404,188.422
			v1.18l-3.841,0.239c1.024,1.276,1.537,2.678,1.537,4.204c0,1.789-0.595,3.238-1.784,4.35s-2.785,1.666-4.788,1.666
			c-0.842,0-1.434-0.033-1.775-0.102c-0.672,0.353-1.184,0.769-1.536,1.247s-0.529,0.985-0.529,1.521
			c0,0.593,0.225,1.025,0.674,1.299c0.45,0.273,1.204,0.41,2.262,0.41h3.244c2.014,0,3.556,0.408,4.626,1.223
			c1.069,0.814,1.604,2.02,1.604,3.614c0,1.96-0.794,3.472-2.382,4.538c-1.587,1.064-3.849,1.598-6.785,1.598
			c-2.333,0-4.14-0.45-5.42-1.351c-1.28-0.899-1.92-2.153-1.92-3.76c0-1.276,0.396-2.335,1.187-3.179s1.863-1.418,3.218-1.727
			c-0.558-0.238-1.005-0.578-1.341-1.017c-0.335-0.438-0.503-0.942-0.503-1.513c0-1.242,0.791-2.336,2.372-3.281
			c-1.081-0.443-1.923-1.142-2.526-2.094c-0.603-0.951-0.904-2.042-0.904-3.272c0-1.856,0.589-3.347,1.767-4.469
			s2.769-1.684,4.771-1.684c1.218,0,2.162,0.12,2.833,0.358H381.404z M366.383,210.145c0,2.552,1.895,3.828,5.685,3.828
			c4.871,0,7.306-1.556,7.306-4.666c0-1.117-0.381-1.926-1.144-2.427s-1.997-0.752-3.704-0.752h-3.038
			C368.084,206.128,366.383,207.467,366.383,210.145L366.383,210.145z M367.8,194.216c0,1.436,0.436,2.55,1.306,3.341
			c0.871,0.793,2.034,1.188,3.491,1.188c1.548,0,2.733-0.394,3.559-1.179c0.825-0.787,1.238-1.926,1.238-3.419
			c0-1.583-0.424-2.771-1.272-3.563c-0.848-0.791-2.034-1.188-3.559-1.188c-1.479,0-2.644,0.424-3.491,1.273
			C368.224,191.519,367.8,192.701,367.8,194.216L367.8,194.216z M414.606,207h-1.435l-5.479-19.278
			c-0.455-1.583-0.796-2.882-1.024-3.896c-0.182,0.991-0.44,2.13-0.776,3.418s-2.171,7.873-5.505,19.757h-1.468l-6.862-24.986h1.826
			l4.37,16.1c0.171,0.648,0.33,1.25,0.478,1.803c0.148,0.553,0.282,1.07,0.401,1.555c0.12,0.484,0.228,0.951,0.324,1.401
			s0.186,0.903,0.265,1.358c0.273-1.549,0.854-3.902,1.741-7.058l4.268-15.159h1.929l5.002,17.398
			c0.58,2.004,0.996,3.623,1.246,4.854c0.147-0.82,0.339-1.692,0.571-2.615c0.233-0.923,1.989-7.469,5.267-19.637h1.758L414.606,207
			z M438.419,207v-12.049c0-1.869-0.393-3.228-1.178-4.076c-0.785-0.85-2.003-1.273-3.653-1.273c-2.219,0-3.844,0.561-4.873,1.684
			c-1.03,1.122-1.545,2.942-1.545,5.461V207h-1.69v-26.593h1.69v8.46l-0.086,2.375h0.12c0.694-1.116,1.57-1.926,2.629-2.427
			c1.058-0.501,2.372-0.752,3.942-0.752c4.211,0,6.316,2.262,6.316,6.785V207H438.419z M457.366,207l-0.427-2.939h-0.136
			c-0.934,1.195-1.893,2.041-2.877,2.537s-2.147,0.744-3.49,0.744c-1.821,0-3.238-0.468-4.251-1.402
			c-1.013-0.934-1.52-2.227-1.52-3.879c0-1.812,0.754-3.219,2.263-4.221c1.508-1.004,3.689-1.533,6.546-1.59l3.533-0.103v-1.23
			c0-1.767-0.358-3.099-1.075-3.999s-1.872-1.351-3.465-1.351c-1.719,0-3.5,0.479-5.343,1.436l-0.632-1.47
			c2.037-0.957,4.051-1.436,6.043-1.436c2.037,0,3.559,0.529,4.565,1.59c1.008,1.059,1.511,2.711,1.511,4.956V207H457.366z
			 M450.539,205.803c1.979,0,3.542-0.566,4.686-1.7s1.715-2.708,1.715-4.726v-1.828l-3.243,0.137
			c-2.605,0.125-4.464,0.532-5.573,1.222s-1.664,1.763-1.664,3.222c0,1.162,0.355,2.064,1.066,2.709
			C448.237,205.481,449.241,205.803,450.539,205.803L450.539,205.803z M469.521,205.838c1.069,0,2.003-0.092,2.8-0.273v1.367
			c-0.819,0.273-1.765,0.41-2.834,0.41c-1.639,0-2.848-0.439-3.627-1.316c-0.78-0.877-1.17-2.256-1.17-4.136v-11.997h-2.748V188.9
			l2.748-0.769l0.854-4.204h0.871v4.494h5.445v1.471h-5.445v11.758c0,1.424,0.25,2.479,0.751,3.162S468.451,205.838,469.521,205.838
			L469.521,205.838z M496.815,207l-9.303-23.072h-0.137c0.091,1.412,0.137,2.859,0.137,4.341V207h-1.673v-24.986h2.697l8.842,21.979
			h0.103l8.842-21.979h2.629V207h-1.758v-18.937c0-1.321,0.068-2.688,0.205-4.102h-0.137L497.925,207H496.815z M526.842,207
			l-0.427-2.939h-0.137c-0.933,1.195-1.892,2.041-2.876,2.537s-2.148,0.744-3.491,0.744c-1.82,0-3.237-0.468-4.25-1.402
			c-1.013-0.934-1.52-2.227-1.52-3.879c0-1.812,0.754-3.219,2.262-4.221c1.508-1.004,3.69-1.533,6.547-1.59l3.533-0.103v-1.23
			c0-1.767-0.358-3.099-1.075-3.999s-1.872-1.351-3.466-1.351c-1.718,0-3.499,0.479-5.343,1.436l-0.631-1.47
			c2.037-0.957,4.051-1.436,6.042-1.436c2.037,0,3.56,0.529,4.566,1.59c1.008,1.059,1.511,2.711,1.511,4.956V207H526.842z
			 M520.014,205.803c1.98,0,3.542-0.566,4.686-1.7c1.145-1.134,1.716-2.708,1.716-4.726v-1.828l-3.243,0.137
			c-2.606,0.125-4.464,0.532-5.573,1.222s-1.664,1.763-1.664,3.222c0,1.162,0.355,2.064,1.066,2.709
			C517.712,205.481,518.717,205.803,520.014,205.803L520.014,205.803z M538.996,205.838c1.069,0,2.003-0.092,2.799-0.273v1.367
			c-0.819,0.273-1.764,0.41-2.833,0.41c-1.639,0-2.848-0.439-3.628-1.316c-0.779-0.877-1.169-2.256-1.169-4.136v-11.997h-2.748
			V188.9l2.748-0.769l0.854-4.204h0.87v4.494h5.445v1.471h-5.445v11.758c0,1.424,0.251,2.479,0.752,3.162
			C537.141,205.496,537.926,205.838,538.996,205.838L538.996,205.838z M550.706,205.838c1.069,0,2.003-0.092,2.8-0.273v1.367
			c-0.819,0.273-1.765,0.41-2.834,0.41c-1.639,0-2.848-0.439-3.627-1.316c-0.78-0.877-1.17-2.256-1.17-4.136v-11.997h-2.748V188.9
			l2.748-0.769l0.854-4.204h0.871v4.494h5.445v1.471H547.6v11.758c0,1.424,0.25,2.479,0.751,3.162
			C548.851,205.496,549.637,205.838,550.706,205.838L550.706,205.838z M565.011,207.342c-2.697,0-4.8-0.832-6.308-2.496
			c-1.508-1.663-2.262-3.993-2.262-6.989c0-2.962,0.729-5.335,2.186-7.118c1.456-1.783,3.419-2.675,5.889-2.675
			c2.186,0,3.909,0.764,5.172,2.29c1.264,1.527,1.896,3.601,1.896,6.221v1.367h-13.366c0.022,2.553,0.617,4.5,1.784,5.846
			c1.166,1.344,2.836,2.016,5.01,2.016c1.059,0,1.988-0.074,2.791-0.222c0.802-0.147,1.817-0.468,3.047-0.957v1.538
			c-1.047,0.455-2.015,0.766-2.901,0.932C567.06,207.259,566.08,207.342,565.011,207.342L565.011,207.342z M564.516,189.567
			c-1.787,0-3.221,0.59-4.302,1.769c-1.081,1.18-1.713,2.88-1.895,5.102h11.471c0-2.153-0.466-3.836-1.399-5.05
			S566.166,189.567,564.516,189.567L564.516,189.567z M584.01,188.063c0.785,0,1.627,0.08,2.526,0.239l-0.324,1.623
			c-0.774-0.193-1.576-0.29-2.407-0.29c-1.582,0-2.879,0.673-3.892,2.017c-1.013,1.345-1.52,3.042-1.52,5.094V207h-1.689v-18.578
			h1.434l0.171,3.35h0.119c0.763-1.367,1.576-2.326,2.441-2.879C581.733,188.34,582.78,188.063,584.01,188.063L584.01,188.063z
			 M601.813,202.163c0,1.663-0.631,2.942-1.895,3.837c-1.263,0.895-3.056,1.342-5.377,1.342c-2.48,0-4.449-0.383-5.906-1.146v-1.829
			c1.866,0.935,3.835,1.402,5.906,1.402c1.832,0,3.224-0.305,4.174-0.915c0.95-0.609,1.425-1.421,1.425-2.435
			c0-0.936-0.378-1.721-1.135-2.359c-0.757-0.638-2-1.264-3.729-1.879c-1.855-0.673-3.158-1.251-3.909-1.735
			s-1.317-1.031-1.699-1.641c-0.381-0.609-0.571-1.353-0.571-2.23c0-1.39,0.583-2.489,1.75-3.298
			c1.166-0.81,2.796-1.214,4.891-1.214c2.003,0,3.903,0.376,5.701,1.128l-0.632,1.538c-1.82-0.752-3.511-1.128-5.069-1.128
			c-1.514,0-2.715,0.251-3.603,0.752c-0.888,0.502-1.331,1.196-1.331,2.085c0,0.969,0.344,1.743,1.032,2.324
			c0.689,0.581,2.034,1.23,4.037,1.948c1.673,0.604,2.891,1.148,3.653,1.633s1.334,1.033,1.716,1.648
			C601.623,200.607,601.813,201.331,601.813,202.163L601.813,202.163z M620.574,205.838c1.069,0,2.003-0.092,2.799-0.273v1.367
			c-0.819,0.273-1.764,0.41-2.833,0.41c-1.639,0-2.849-0.439-3.628-1.316s-1.169-2.256-1.169-4.136v-11.997h-2.748V188.9
			l2.748-0.769l0.854-4.204h0.87v4.494h5.445v1.471h-5.445v11.758c0,1.424,0.251,2.479,0.751,3.162
			C618.719,205.496,619.504,205.838,620.574,205.838L620.574,205.838z M640.324,207v-12.049c0-1.869-0.393-3.228-1.178-4.076
			c-0.785-0.85-2.003-1.273-3.653-1.273c-2.219,0-3.844,0.561-4.874,1.684c-1.029,1.122-1.544,2.942-1.544,5.461V207h-1.69v-26.593
			h1.69v8.46l-0.086,2.375h0.12c0.693-1.116,1.57-1.926,2.628-2.427c1.059-0.501,2.373-0.752,3.943-0.752
			c4.211,0,6.316,2.262,6.316,6.785V207H640.324z M655.499,207.342c-2.696,0-4.799-0.832-6.307-2.496
			c-1.509-1.663-2.263-3.993-2.263-6.989c0-2.962,0.729-5.335,2.186-7.118s3.42-2.675,5.889-2.675c2.186,0,3.909,0.764,5.173,2.29
			c1.263,1.527,1.895,3.601,1.895,6.221v1.367h-13.366c0.023,2.553,0.618,4.5,1.784,5.846c1.166,1.344,2.837,2.016,5.01,2.016
			c1.059,0,1.989-0.074,2.791-0.222c0.803-0.147,1.818-0.468,3.047-0.957v1.538c-1.047,0.455-2.014,0.766-2.901,0.932
			C657.548,207.259,656.569,207.342,655.499,207.342L655.499,207.342z M655.004,189.567c-1.786,0-3.22,0.59-4.301,1.769
			c-1.082,1.18-1.713,2.88-1.896,5.102h11.472c0-2.153-0.467-3.836-1.4-5.05C657.946,190.174,656.654,189.567,655.004,189.567
			L655.004,189.567z M687.677,207l-9.304-23.072h-0.137c0.092,1.412,0.137,2.859,0.137,4.341V207H676.7v-24.986h2.697l8.843,21.979
			h0.102l8.843-21.979h2.629V207h-1.759v-18.937c0-1.321,0.068-2.688,0.205-4.102h-0.137L688.786,207H687.677z M721.782,197.686
			c0,3.03-0.733,5.397-2.202,7.101c-1.468,1.704-3.493,2.556-6.076,2.556c-1.628,0-3.062-0.394-4.302-1.18
			c-1.241-0.786-2.19-1.914-2.851-3.384s-0.99-3.167-0.99-5.093c0-3.031,0.733-5.393,2.202-7.084
			c1.468-1.691,3.482-2.538,6.042-2.538c2.55,0,4.55,0.857,6.001,2.572C721.057,192.351,721.782,194.7,721.782,197.686
			L721.782,197.686z M707.137,197.686c0,2.552,0.561,4.543,1.681,5.973c1.121,1.43,2.706,2.145,4.755,2.145
			c2.048,0,3.633-0.715,4.754-2.145s1.681-3.421,1.681-5.973c0-2.563-0.565-4.552-1.698-5.965c-1.132-1.412-2.723-2.119-4.771-2.119
			c-2.049,0-3.628,0.703-4.737,2.111C707.691,193.119,707.137,195.11,707.137,197.686L707.137,197.686z M738.426,202.163
			c0,1.663-0.632,2.942-1.895,3.837c-1.264,0.895-3.056,1.342-5.377,1.342c-2.481,0-4.45-0.383-5.906-1.146v-1.829
			c1.866,0.935,3.835,1.402,5.906,1.402c1.832,0,3.223-0.305,4.174-0.915c0.95-0.609,1.425-1.421,1.425-2.435
			c0-0.936-0.378-1.721-1.135-2.359c-0.757-0.638-2-1.264-3.73-1.879c-1.854-0.673-3.157-1.251-3.909-1.735
			c-0.751-0.484-1.316-1.031-1.698-1.641c-0.381-0.609-0.571-1.353-0.571-2.23c0-1.39,0.583-2.489,1.749-3.298
			c1.167-0.81,2.797-1.214,4.891-1.214c2.003,0,3.903,0.376,5.702,1.128l-0.632,1.538c-1.821-0.752-3.511-1.128-5.07-1.128
			c-1.514,0-2.714,0.251-3.602,0.752c-0.888,0.502-1.331,1.196-1.331,2.085c0,0.969,0.344,1.743,1.032,2.324s2.034,1.23,4.037,1.948
			c1.673,0.604,2.891,1.148,3.653,1.633s1.334,1.033,1.716,1.648C738.235,200.607,738.426,201.331,738.426,202.163L738.426,202.163z
			 M748.104,205.838c1.07,0,2.003-0.092,2.8-0.273v1.367c-0.819,0.273-1.764,0.41-2.834,0.41c-1.639,0-2.848-0.439-3.627-1.316
			s-1.17-2.256-1.17-4.136v-11.997h-2.748V188.9l2.748-0.769l0.854-4.204h0.871v4.494h5.445v1.471h-5.445v11.758
			c0,1.424,0.25,2.479,0.751,3.162S747.035,205.838,748.104,205.838L748.104,205.838z"/>
		<path id="Liberty-Insurance" sketch:type="MSShapeGroup" fill="#FFFFFF" d="M222.343,149.498v-4.614l5.962-1.025v-42.005
			l-5.962-1.025v-4.651h5.962h7.206h5.962v4.651l-5.962,1.025v42.005h18.509l0.549-6.116h6.146v11.756H222.343z M266.859,144.884
			l5.962-1.025V115.55l-5.962-1.025v-4.651h13.168v33.985l5.962,1.025v4.614h-19.131V144.884z M280.028,99.729h-7.206v-7.361h7.206
			V99.729z M327.689,131.188c0,5.713-1.371,10.321-4.114,13.824c-2.744,3.504-6.518,5.256-11.321,5.256
			c-2.585,0-4.828-0.494-6.731-1.483c-1.902-0.989-3.487-2.447-4.755-4.376l-0.659,5.09h-6.218V98.045l-5.962-1.026v-4.651h13.168
			v22.193c1.244-1.758,2.786-3.101,4.627-4.028c1.841-0.928,3.993-1.392,6.456-1.392c4.877,0,8.682,1.953,11.412,5.859
			c2.731,3.906,4.097,9.045,4.097,15.417V131.188z M320.447,130.418c0-4.564-0.829-8.276-2.487-11.133S313.766,115,310.352,115
			c-2.219,0-4.091,0.537-5.615,1.611c-1.524,1.074-2.737,2.516-3.64,4.322v17.505c0.902,1.831,2.127,3.284,3.676,4.358
			s3.433,1.611,5.651,1.611c3.39,0,5.907-1.209,7.554-3.626c1.646-2.417,2.469-5.615,2.469-9.595V130.418z M352.93,150.268
			c-5.512,0-9.895-1.838-13.15-5.512s-4.884-8.441-4.884-14.301v-1.611c0-5.64,1.677-10.334,5.03-14.081
			c3.353-3.748,7.321-5.622,11.906-5.622c5.316,0,9.346,1.611,12.089,4.834c2.744,3.222,4.115,7.519,4.115,12.891v4.505h-25.678
			l-0.11,0.183c0.073,3.809,1.037,6.94,2.89,9.394c1.854,2.453,4.451,3.68,7.792,3.68c2.438,0,4.578-0.348,6.419-1.043
			c1.842-0.695,3.433-1.654,4.773-2.875l2.817,4.688c-1.415,1.367-3.286,2.521-5.615,3.461S356.197,150.268,352.93,150.268
			L352.93,150.268z M351.832,114.817c-2.414,0-4.475,1.02-6.182,3.058c-1.707,2.039-2.756,4.596-3.146,7.673l0.073,0.183h18.253
			v-0.951c0-2.833-0.756-5.201-2.268-7.105S354.807,114.817,351.832,114.817L351.832,114.817z M375.133,114.524v-4.651h12.4
			l0.694,5.75c1.122-2.026,2.506-3.613,4.152-4.761c1.646-1.147,3.529-1.721,5.651-1.721c0.561,0,1.14,0.042,1.737,0.128
			s1.055,0.177,1.372,0.275l-0.951,6.702l-4.098-0.22c-1.901,0-3.499,0.446-4.791,1.337c-1.293,0.891-2.293,2.142-3,3.753v22.742
			l5.963,1.025v4.614h-19.131v-4.614l5.962-1.025V115.55L375.133,114.524z M419.868,100.315v9.558h7.499v5.347h-7.499v24.061
			c0,1.855,0.385,3.161,1.152,3.918c0.769,0.757,1.786,1.135,3.055,1.135c0.634,0,1.347-0.055,2.14-0.164s1.457-0.227,1.993-0.348
			l0.988,4.943c-0.683,0.439-1.683,0.8-3,1.08c-1.316,0.281-2.634,0.422-3.95,0.422c-2.927,0-5.255-0.885-6.986-2.655
			s-2.598-4.548-2.598-8.331V115.22h-6.255v-5.347h6.255v-9.558H419.868z M472.322,114.524l-3.548,0.549l-15.07,40.504
			c-1,2.66-2.438,4.98-4.316,6.957c-1.878,1.979-4.401,2.967-7.572,2.967c-0.561,0-1.292-0.066-2.194-0.201
			s-1.598-0.263-2.085-0.385l0.731-5.676c-0.146-0.025,0.286,0,1.299,0.072c1.012,0.074,1.652,0.11,1.92,0.11
			c1.536,0,2.78-0.665,3.731-1.996s1.78-2.862,2.487-4.596l1.719-4.102l-13.059-33.619l-3.621-0.586v-4.651h15.985v4.651
			l-4.463,0.732l6.84,19.556l1.317,5.055h0.22l8.229-24.61l-4.499-0.732v-4.651h15.948V114.524z M495.147,100.828v-4.651h19.131
			v4.651l-5.962,1.025v42.005l5.962,1.025v4.614h-19.131v-4.614l5.963-1.025v-42.005L495.147,100.828z M518.997,144.884l5.962-1.025
			V115.55l-5.962-1.025v-4.651h12.4l0.512,5.896c1.317-2.1,2.969-3.729,4.957-4.889c1.987-1.16,4.249-1.74,6.785-1.74
			c4.268,0,7.571,1.251,9.913,3.754c2.341,2.502,3.511,6.366,3.511,11.591v19.372l5.963,1.025v4.614h-19.131v-4.614l5.962-1.025
			v-19.226c0-3.492-0.688-5.971-2.066-7.436c-1.378-1.464-3.48-2.197-6.31-2.197c-2.073,0-3.908,0.5-5.505,1.501
			c-1.598,1.001-2.872,2.368-3.823,4.102v23.255l5.963,1.025v4.614h-19.131V144.884z M598.556,122.325h-5.413l-1.171-4.761
			c-0.878-0.83-1.981-1.496-3.311-1.996s-2.835-0.751-4.518-0.751c-2.561,0-4.462,0.562-5.706,1.685
			c-1.243,1.123-1.865,2.479-1.865,4.064c0,1.563,0.549,2.796,1.646,3.699c1.098,0.904,3.329,1.709,6.694,2.418
			c4.999,1.074,8.718,2.532,11.156,4.375c2.438,1.844,3.658,4.316,3.658,7.416c0,3.516-1.421,6.36-4.262,8.533
			c-2.841,2.174-6.554,3.26-11.138,3.26c-3,0-5.694-0.348-8.084-1.044s-4.523-1.703-6.401-3.021l-0.037-9.046h5.414l1.354,5.311
			c0.829,0.757,1.957,1.307,3.383,1.648c1.427,0.342,2.884,0.512,4.372,0.512c2.561,0,4.565-0.518,6.017-1.556
			s2.177-2.399,2.177-4.083c0-1.588-0.604-2.894-1.811-3.919s-3.493-1.917-6.858-2.673c-4.805-1.051-8.426-2.479-10.864-4.285
			s-3.658-4.248-3.658-7.324c0-3.223,1.372-5.97,4.115-8.24s6.31-3.406,10.699-3.406c3,0,5.694,0.391,8.084,1.172
			s4.378,1.868,5.963,3.259L598.556,122.325z M634.769,143.639c-1.243,2.124-2.847,3.76-4.81,4.908
			c-1.963,1.146-4.225,1.721-6.785,1.721c-4.292,0-7.646-1.379-10.06-4.139c-2.414-2.759-3.621-7.056-3.621-12.891V115.55
			l-4.536-1.025v-4.651h4.536h7.206v23.438c0,4.224,0.621,7.129,1.865,8.716s3.183,2.381,5.816,2.381
			c2.561,0,4.676-0.52,6.346-1.557c1.671-1.037,2.933-2.509,3.786-4.413V115.55l-5.304-1.025v-4.651h5.304h7.206v33.985l4.536,1.025
			v4.614h-11.011L634.769,143.639z M651.961,114.524v-4.651h12.4l0.695,5.75c1.121-2.026,2.505-3.613,4.151-4.761
			c1.646-1.147,3.529-1.721,5.651-1.721c0.561,0,1.14,0.042,1.737,0.128s1.055,0.177,1.372,0.275l-0.951,6.702l-4.097-0.22
			c-1.902,0-3.5,0.446-4.792,1.337c-1.293,0.891-2.292,2.142-3,3.753v22.742l5.963,1.025v4.614h-19.131v-4.614l5.962-1.025V115.55
			L651.961,114.524z M708.768,149.498c-0.219-1.074-0.39-2.038-0.512-2.893c-0.122-0.855-0.207-1.709-0.256-2.564
			c-1.391,1.783-3.128,3.266-5.213,4.45s-4.311,1.776-6.676,1.776c-4.121,0-7.255-1.008-9.4-3.021
			c-2.146-2.014-3.219-4.853-3.219-8.515c0-3.76,1.518-6.659,4.554-8.698c3.036-2.038,7.2-3.057,12.491-3.057h7.426v-4.615
			c0-2.319-0.731-4.156-2.194-5.512c-1.464-1.354-3.5-2.032-6.108-2.032c-1.805,0-3.396,0.232-4.774,0.696
			c-1.377,0.464-2.493,1.098-3.347,1.905l-0.768,4.174h-5.561v-7.69c1.805-1.44,3.987-2.594,6.548-3.46
			c2.561-0.867,5.341-1.3,8.34-1.3c4.487,0,8.12,1.147,10.9,3.442s4.17,5.579,4.17,9.851v19.08c0,0.513,0.006,1.013,0.019,1.501
			c0.012,0.488,0.043,0.977,0.092,1.465l2.926,0.403v4.614H708.768z M697.172,144.225c2.391,0,4.573-0.574,6.548-1.721
			c1.976-1.148,3.39-2.527,4.243-4.139v-6.519h-7.682c-2.95,0-5.285,0.684-7.005,2.051c-1.719,1.367-2.578,3.027-2.578,4.98
			c0,1.733,0.536,3.058,1.609,3.974S695.002,144.225,697.172,144.225L697.172,144.225z M723.144,144.884l5.962-1.025V115.55
			l-5.962-1.025v-4.651h12.4l0.512,5.896c1.316-2.1,2.969-3.729,4.956-4.889c1.988-1.16,4.25-1.74,6.785-1.74
			c4.268,0,7.572,1.251,9.913,3.754c2.342,2.502,3.512,6.366,3.512,11.591v19.372l5.963,1.025v4.614h-19.131v-4.614l5.962-1.025
			v-19.226c0-3.492-0.688-5.971-2.066-7.436c-1.378-1.464-3.481-2.197-6.31-2.197c-2.073,0-3.908,0.5-5.506,1.501
			c-1.597,1.001-2.871,2.368-3.822,4.102v23.255l5.963,1.025v4.614h-19.131V144.884z M789.826,144.627
			c2.39,0,4.493-0.738,6.311-2.215c1.816-1.477,2.725-3.29,2.725-5.438h6.475l0.073,0.22c0.122,3.418-1.396,6.451-4.555,9.101
			c-3.157,2.649-6.834,3.974-11.028,3.974c-5.755,0-10.15-1.88-13.187-5.641c-3.036-3.76-4.554-8.483-4.554-14.172v-1.538
			c0-5.64,1.523-10.346,4.572-14.118c3.048-3.772,7.438-5.658,13.168-5.658c3.17,0,6.018,0.525,8.541,1.575
			c2.524,1.05,4.615,2.49,6.273,4.321l0.329,8.789h-5.742l-1.573-6.226c-0.854-0.83-1.951-1.501-3.292-2.014
			s-2.854-0.769-4.536-0.769c-3.779,0-6.48,1.361-8.102,4.083c-1.622,2.723-2.433,6.062-2.433,10.017v1.538
			c0,4.053,0.805,7.428,2.414,10.126S786.022,144.627,789.826,144.627L789.826,144.627z M830.502,150.268
			c-5.511,0-9.895-1.838-13.15-5.512c-3.255-3.674-4.883-8.441-4.883-14.301v-1.611c0-5.64,1.677-10.334,5.029-14.081
			c3.354-3.748,7.322-5.622,11.906-5.622c5.316,0,9.347,1.611,12.09,4.834c2.743,3.222,4.115,7.519,4.115,12.891v4.505h-25.679
			l-0.109,0.183c0.073,3.809,1.036,6.94,2.89,9.394s4.45,3.68,7.791,3.68c2.438,0,4.578-0.348,6.42-1.043
			c1.841-0.695,3.432-1.654,4.773-2.875l2.816,4.688c-1.414,1.367-3.286,2.521-5.615,3.461
			C836.568,149.797,833.77,150.268,830.502,150.268L830.502,150.268z M829.404,114.817c-2.414,0-4.475,1.02-6.182,3.058
			c-1.707,2.039-2.756,4.596-3.146,7.673l0.073,0.183h18.253v-0.951c0-2.833-0.756-5.201-2.269-7.105
			C834.623,115.77,832.38,114.817,829.404,114.817L829.404,114.817z"/>
		<path id="Path-15" sketch:type="MSShapeGroup" fill="#FFA600" d="M173.102,141.777c0.596,3.9,0.904,7.895,0.904,11.961
			c0,7.002-0.916,13.789-2.633,20.249l0,0c-2.25-1.364-8.942-5.604-10.909-8.87c-2.377-3.946-3.797-9.721-5.816-9.865
			c-2.019-0.143-4.312,2.656-6.402,1.514c-2.09-1.143-8.79-6.637-15.723-9.285c-6.933-2.65-22.945-6.141-27.777-6.661
			c-4.832-0.521-7.195-2.444-7.746-3.271c-0.55-0.827-0.826-2.371-0.826-2.371s-1.433,2.482-2.812,4.197
			c-1.379,1.716-7.1,6.057-10.294,9.5s-8.05,10.414-7.381,14.025c0.668,3.611,0.974,3.994,2.168,4.132
			c1.194,0.138,4.843-1.196,6.36-1.196c1.518,0,1.917-0.186,2.473,1.23c0.556,1.418-2.054,7.945-2.866,11.826
			s-2.383,12.56-2.383,13.912c0,1.354,0.478,3.26,0.478,3.26s0.363-2.379,1.445-2.75c1.082-0.371,3.989-0.988,4.911-0.479
			c0.921,0.509,3.47,2.236,4.863,2.607c1.393,0.371,4.132,0.963,4.545,1.61c0.413,0.646-1.999,2.521-3.499,2.801
			c-1.5,0.28-2.401,0.042-2.91,0.186s-1.171,0.653-1.583,0.934c-0.413,0.28-1.083,0.144-1.728,0.28
			c-0.645,0.139-1.458,3.72-1.458,4.605s-0.244,3.47-0.244,3.47s2.939,0.855,3.585,0.718c0.645-0.138,2.544-2.554,3.733-2.979
			c1.189-0.426,9.117,0.473,10.708,0.896c1.59,0.425,4.935,1.842,4.935,1.842s-4.339,1.095-6.156,1.095s-5.459-0.042-6.72,0.377
			s-4.001,2.54-4.922,2.815c0,0-3.454,0.287-4.519,0.796s-2.312,2.086-2.312,3.528c0,1.441,0.741,2.722,0.741,2.722
			s3.562-0.796,4.637-0.796s3.984-0.676,5.364-1.339c1.379-0.664,3.552-1.95,5.273-2.321c1.721-0.37,4.075,0.012,4.075,0.012
			s-2.006,1.758-3.56,2.189c0,0-7.801,2.535-8.967,2.816s-2.755,0.544-2.988,1.095s-0.471,3.253,0.006,4.833
			c0,0,0.159,2.807,0.387,4.371c-17.027-1.301-32.532-8.047-44.783-18.502l-23.089,5.717l17.056-11.443l0,0
			c-10.224-10.781-17.42-24.467-20.228-39.693l0,0L2.72,167.774c0,0,8.272-0.732,12.408-1.099
			c17.964-1.591,35.927-3.182,53.891-4.771c0,0,0,0.064,0,1.668c0,1.603,0.77,5.493,0.77,5.493l-51.275-0.987l0,0L2.72,167.774
			l15.169-3.65c-0.449-3.397-0.68-6.864-0.68-10.386c0-15.271,4.356-29.523,11.893-41.58l38.932,28.643c0,0-0.287,2.691,0.604,4.342
			c0.89,1.651,3.708,5.435,3.708,5.435s1.422-8.628,8.66-15.426s15.389-4.968,15.389-4.968s0.449-2.344,7.071-6.721
			c6.623-4.376,22.124-3.479,39.505,0.049C156.986,126.355,168.982,137.55,173.102,141.777z M156.237,103.973
			c-2.002-2.443-4.149-4.762-6.427-6.945l0,0l1.357-94.221l-0.355,3.986l-6.118,93.037
			C144.694,99.831,150.757,101.576,156.237,103.973z M131.981,84.189c-10.871-5.71-23.245-8.941-36.374-8.941
			c-0.81,0-1.617,0.012-2.421,0.037L46.558,0.437l53.223,102.515c0,0,12.664-4.952,17.316-5.52
			c4.652-0.568,11.831-0.197,11.831-0.197L131.981,84.189z M74.799,78.042c-16.764,4.608-31.281,14.649-41.547,28.114l0,0L0,90.66
			l1.111,0.729l69.544,40.722c0,0,7.455-12.591,9.462-15.258c2.006-2.666,6.653-6.008,6.653-6.008L74.799,78.042z M95.525,164.82
			c0-1.268,1.523-2.762,3.184-3.133s9.017-1.441,15.161-1.375c7.53,0.08,12.685,1.137,16.399,2.092
			c3.714,0.957,10.981,5.011,11.722,5.717c0.741,0.705-0.336,1.619-1.259,1.943c-1.656,0.581-5.054-0.848-8.004,0.371
			c-1.016,0.419-4.484,4.054-7.231,5.105c0,0-9.091,3.494-16.367,2.41C101.854,176.868,95.525,166.089,95.525,164.82z
			 M73.465,206.393l-51.779,12.822l48.413-21.521c0,0,0.644,2.67,1.385,4.824S73.465,206.393,73.465,206.393z"/>
	</g>
</g>
</svg>
