<?xml version="1.0" encoding="UTF-8" standalone="no"?>
<svg width="846px" height="232px" viewBox="0 0 846 232" version="1.1" xmlns="http://www.w3.org/2000/svg" xmlns:xlink="http://www.w3.org/1999/xlink" xmlns:sketch="http://www.bohemiancoding.com/sketch/ns">
    <!-- Generator: Sketch 3.2.2 (9983) - http://www.bohemiancoding.com/sketch -->
    <title>Protecting What Matt + Liberty Insurance + Path 15</title>
    <desc>Created with Sketch.</desc>
    <defs></defs>
    <g id="Page-1" stroke="none" stroke-width="1" fill="none" fill-rule="evenodd" sketch:type="MSPage">
        <g id="Protecting-What-Matt-+-Liberty-Insurance-+-Path-15" sketch:type="MSLayerGroup" fill="#000000">
            <path d="M240.798213,189.191523 C240.798213,191.606948 239.978856,193.458366 238.340118,194.745833 C236.701379,196.033301 234.379868,196.677025 231.375515,196.677025 L227.517671,196.677025 L227.517671,206.999498 L225.776521,206.999498 L225.776521,182.013644 L231.887618,182.013644 C237.828044,182.013644 240.798213,184.406246 240.798213,189.191523 L240.798213,189.191523 Z M227.517671,195.173088 L230.948762,195.173088 C233.759654,195.173088 235.790976,194.708809 237.04279,193.780238 C238.294604,192.851666 238.920501,191.344897 238.920501,189.259883 C238.920501,187.334379 238.328743,185.907363 237.14521,184.978791 C235.961677,184.05022 234.129504,183.585941 231.648637,183.585941 L227.517671,183.585941 L227.517671,195.173088 Z M253.105758,188.06357 C253.890987,188.06357 254.733104,188.143324 255.632134,188.302833 L255.307802,189.926401 C254.533953,189.732711 253.731666,189.635867 252.900917,189.635867 C251.319079,189.635867 250.021764,190.308075 249.008933,191.65251 C247.996102,192.996944 247.489694,194.694553 247.489694,196.745385 L247.489694,206.999498 L245.799753,206.999498 L245.799753,188.422464 L247.233642,188.422464 L247.404343,191.772141 L247.523834,191.772141 C248.286302,190.404919 249.099969,189.44503 249.964859,188.892444 C250.829749,188.339859 251.876704,188.06357 253.105758,188.06357 L253.105758,188.06357 Z M274.050777,197.685346 C274.050777,200.716021 273.316769,203.082988 271.848733,204.786318 C270.380697,206.489649 268.355065,207.341301 265.771776,207.341301 C264.144418,207.341301 262.710543,206.948231 261.470109,206.162078 C260.229676,205.375926 259.279449,204.247985 258.619402,202.778221 C257.959355,201.308458 257.629336,199.61085 257.629336,197.685346 C257.629336,194.654671 258.363343,192.2934 259.831379,190.601463 C261.299416,188.909526 263.313668,188.06357 265.874197,188.06357 C268.423345,188.06357 270.423372,188.920919 271.874338,190.635643 C273.325304,192.350367 274.050777,194.700245 274.050777,197.685346 L274.050777,197.685346 Z M259.404627,197.685346 C259.404627,200.237493 259.96509,202.22848 261.086032,203.658366 C262.206975,205.088252 263.791633,205.803185 265.840056,205.803185 C267.888479,205.803185 269.473138,205.088252 270.59408,203.658366 C271.715023,202.22848 272.275486,200.237493 272.275486,197.685346 C272.275486,195.121805 271.709333,193.133666 270.57701,191.72087 C269.444688,190.308074 267.854339,189.601687 265.805916,189.601687 C263.757493,189.601687 262.178524,190.305226 261.068962,191.712325 C259.9594,193.119424 259.404627,195.110411 259.404627,197.685346 L259.404627,197.685346 Z M284.087998,205.837365 C285.15773,205.837365 286.090887,205.746218 286.887495,205.563922 L286.887495,206.931137 C286.068126,207.204581 285.12359,207.341301 284.053858,207.341301 C282.41512,207.341301 281.205999,206.902658 280.426461,206.025357 C279.646922,205.148056 279.257159,203.769462 279.257159,201.889532 L279.257159,189.89222 L276.508872,189.89222 L276.508872,188.900989 L279.257159,188.131931 L280.110664,183.927745 L280.981239,183.927745 L280.981239,188.422464 L286.426603,188.422464 L286.426603,189.89222 L280.981239,189.89222 L280.981239,201.650269 C280.981239,203.074458 281.231598,204.128343 281.732324,204.811954 C282.233049,205.495565 283.018266,205.837365 284.087998,205.837365 L284.087998,205.837365 Z M298.392746,207.341301 C295.695656,207.341301 293.593209,206.509587 292.085342,204.846134 C290.577475,203.182681 289.823553,200.852742 289.823553,197.856247 C289.823553,194.893934 290.551871,192.52127 292.008527,190.738185 C293.465183,188.955099 295.428225,188.06357 297.897713,188.06357 C300.082697,188.06357 301.806761,188.826924 303.069955,190.353655 C304.333149,191.880386 304.964736,193.953975 304.964736,196.574483 L304.964736,197.941698 L291.598844,197.941698 C291.621605,200.493846 292.216207,202.442108 293.38267,203.786542 C294.549133,205.130977 296.219142,205.803185 298.392746,205.803185 C299.451098,205.803185 300.381409,205.729128 301.183708,205.581012 C301.986007,205.432896 303.001668,205.113883 304.230722,204.623962 L304.230722,206.162078 C303.18375,206.617819 302.216454,206.928288 301.328804,207.093494 C300.441154,207.2587 299.462478,207.341301 298.392746,207.341301 L298.392746,207.341301 Z M297.897713,189.567507 C296.111033,189.567507 294.677159,190.157112 293.596047,191.336341 C292.514935,192.51557 291.883347,194.216026 291.701265,196.437762 L303.172375,196.437762 C303.172375,194.284388 302.705797,192.601021 301.772627,191.387612 C300.839456,190.174202 299.547831,189.567507 297.897713,189.567507 L297.897713,189.567507 Z M317.494193,207.341301 C314.842624,207.341301 312.765782,206.503891 311.263605,204.829044 C309.761428,203.154197 309.010351,200.818562 309.010351,197.822067 C309.010351,194.745818 309.789878,192.350367 311.348955,190.635643 C312.908033,188.920919 315.041775,188.06357 317.750245,188.06357 C319.354843,188.06357 320.891137,188.342707 322.359173,188.900989 L321.89828,190.404926 C320.293682,189.869431 318.899638,189.601687 317.716104,189.601687 C315.440079,189.601687 313.716016,190.305226 312.543863,191.712325 C311.37171,193.119424 310.785642,195.144591 310.785642,197.787887 C310.785642,200.29446 311.37171,202.256964 312.543863,203.675456 C313.716016,205.093949 315.354729,205.803185 317.460053,205.803185 C319.144312,205.803185 320.709056,205.501261 322.154332,204.897405 L322.154332,206.469702 C320.970799,207.050771 319.417435,207.341301 317.494193,207.341301 L317.494193,207.341301 Z M331.5941,205.837365 C332.663832,205.837365 333.596988,205.746218 334.393597,205.563922 L334.393597,206.931137 C333.574228,207.204581 332.629691,207.341301 331.559959,207.341301 C329.921221,207.341301 328.712101,206.902658 327.932562,206.025357 C327.153023,205.148056 326.76326,203.769462 326.76326,201.889532 L326.76326,189.89222 L324.014973,189.89222 L324.014973,188.900989 L326.76326,188.131931 L327.616765,183.927745 L328.487341,183.927745 L328.487341,188.422464 L333.932704,188.422464 L333.932704,189.89222 L328.487341,189.89222 L328.487341,201.650269 C328.487341,203.074458 328.7377,204.128343 329.238425,204.811954 C329.739151,205.495565 330.524368,205.837365 331.5941,205.837365 L331.5941,205.837365 Z M340.095012,206.999498 L338.405071,206.999498 L338.405071,188.422464 L340.095012,188.422464 L340.095012,206.999498 Z M338.16609,183.261228 C338.16609,182.16745 338.524559,181.62057 339.241507,181.62057 C339.59429,181.62057 339.870254,181.762986 340.069407,182.047824 C340.268559,182.332662 340.368133,182.737126 340.368133,183.261228 C340.368133,183.773936 340.268559,184.1784 340.069407,184.474631 C339.870254,184.770862 339.59429,184.918976 339.241507,184.918976 C338.524559,184.918976 338.16609,184.366399 338.16609,183.261228 L338.16609,183.261228 Z M359.247669,206.999498 L359.247669,194.950916 C359.247669,193.082379 358.855061,191.723723 358.069832,190.874906 C357.284603,190.026089 356.066948,189.601687 354.41683,189.601687 C352.197705,189.601687 350.573216,190.162809 349.543315,191.285071 C348.513413,192.407332 347.99847,194.227418 347.99847,196.745385 L347.99847,206.999498 L346.30853,206.999498 L346.30853,188.422464 L347.742419,188.422464 L348.066751,190.968902 L348.169171,190.968902 C349.375465,189.032004 351.520586,188.06357 354.604601,188.06357 C358.815248,188.06357 360.920539,190.325149 360.920539,194.848375 L360.920539,206.999498 L359.247669,206.999498 Z M381.404665,188.422464 L381.404665,189.601687 L377.563892,189.84095 C378.588103,191.117023 379.100201,192.518405 379.100201,194.045136 C379.100201,195.833918 378.505598,197.283721 377.316375,198.394588 C376.127152,199.505456 374.531113,200.060882 372.528211,200.060882 C371.686081,200.060882 371.094324,200.026702 370.75292,199.95834 C370.081492,200.311539 369.569394,200.727397 369.21661,201.205924 C368.863826,201.684452 368.687437,202.191456 368.687437,202.726951 C368.687437,203.319414 368.912191,203.752361 369.361706,204.025805 C369.811221,204.299249 370.565143,204.43597 371.623495,204.43597 L374.866815,204.43597 C376.881097,204.43597 378.423081,204.843282 379.492813,205.657918 C380.562545,206.472554 381.097403,207.6774 381.097403,209.272493 C381.097403,211.232177 380.303651,212.744644 378.716124,213.809937 C377.128596,214.875231 374.86683,215.40787 371.930757,215.40787 C369.597831,215.40787 367.791263,214.957833 366.510999,214.057745 C365.230735,213.157657 364.590612,211.904389 364.590612,210.297904 C364.590612,209.02183 364.986065,207.962249 365.776984,207.119129 C366.567903,206.276009 367.640464,205.700645 368.994699,205.39302 C368.437073,205.153756 367.99041,204.814804 367.654696,204.376154 C367.318982,203.937504 367.151128,203.433348 367.151128,202.863672 C367.151128,201.621779 367.942035,200.528018 369.523872,199.582356 C368.44276,199.138009 367.600643,198.440167 366.997497,197.488808 C366.39435,196.53745 366.092781,195.446537 366.092781,194.216038 C366.092781,192.358895 366.681694,190.869215 367.859537,189.746954 C369.03738,188.624692 370.627729,188.06357 372.630631,188.06357 C373.848305,188.06357 374.792841,188.1832 375.464269,188.422464 L381.404665,188.422464 Z M366.382973,210.144092 C366.382973,212.696239 368.277736,213.972294 372.067318,213.972294 C376.938012,213.972294 379.373323,212.417103 379.373323,209.306673 C379.373323,208.190108 378.992094,207.381181 378.229626,206.879866 C377.467157,206.378552 376.232432,206.127898 374.525413,206.127898 L371.486934,206.127898 C368.084276,206.127898 366.382973,207.466616 366.382973,210.144092 L366.382973,210.144092 Z M367.799792,194.216038 C367.799792,195.651621 368.235075,196.76532 369.105655,197.557169 C369.976234,198.349018 371.139835,198.744937 372.596491,198.744937 C374.144188,198.744937 375.330549,198.351867 376.155608,197.565714 C376.980667,196.779562 377.393191,195.640227 377.393191,194.147677 C377.393191,192.563978 376.969287,191.376222 376.121468,190.584373 C375.273648,189.792524 374.087288,189.396605 372.562351,189.396605 C371.082934,189.396605 369.919334,189.821007 369.071514,190.669824 C368.223695,191.518641 367.799792,192.7007 367.799792,194.216038 L367.799792,194.216038 Z M414.606019,206.999498 L413.17213,206.999498 L407.692626,187.721766 C407.237421,186.138068 406.896023,184.839227 406.66842,183.825204 C406.486338,184.81644 406.227444,185.955774 405.89173,187.243241 C405.556017,188.530708 403.720999,195.116061 400.386622,206.999498 L398.918593,206.999498 L392.05641,182.013644 L393.882912,182.013644 L398.252858,198.1126 C398.42356,198.762031 398.58288,199.36303 398.730821,199.915615 C398.878763,200.468201 399.012478,200.986598 399.131969,201.470822 C399.25146,201.955046 399.35957,202.422174 399.456301,202.872217 C399.553032,203.322261 399.641227,203.775147 399.720887,204.230887 C399.994011,202.681369 400.574388,200.328644 401.462038,197.17264 L405.729564,182.013644 L407.658486,182.013644 L412.660027,199.411455 C413.240413,201.416713 413.655782,203.034568 413.906144,204.265068 C414.054086,203.444735 414.2447,202.573144 414.477993,201.650269 C414.711286,200.727394 416.466644,194.181918 419.74412,182.013644 L421.502341,182.013644 L414.606019,206.999498 Z M438.418815,206.999498 L438.418815,194.950916 C438.418815,193.082379 438.026206,191.723723 437.240978,190.874906 C436.455749,190.026089 435.238094,189.601687 433.587975,189.601687 C431.36885,189.601687 429.744362,190.162809 428.71446,191.285071 C427.684559,192.407332 427.169616,194.227418 427.169616,196.745385 L427.169616,206.999498 L425.479675,206.999498 L425.479675,180.407166 L427.169616,180.407166 L427.169616,188.866809 L427.084265,191.242345 L427.203756,191.242345 C427.897944,190.125781 428.7742,189.316853 429.832552,188.815538 C430.890904,188.314224 432.205289,188.06357 433.775746,188.06357 C437.986393,188.06357 440.091685,190.325149 440.091685,194.848375 L440.091685,206.999498 L438.418815,206.999498 Z M457.366631,206.999498 L456.939878,204.059985 L456.803318,204.059985 C455.870147,205.256305 454.911386,206.10226 453.927005,206.597878 C452.942624,207.093496 451.779023,207.341301 450.436169,207.341301 C448.615348,207.341301 447.198544,206.874174 446.185712,205.939906 C445.172881,205.005638 444.666473,203.712493 444.666473,202.060434 C444.666473,200.248865 445.420395,198.841787 446.928262,197.839157 C448.436129,196.836528 450.618235,196.306737 453.474647,196.24977 L457.008159,196.147229 L457.008159,194.916735 C457.008159,193.15074 456.64969,191.817719 455.932742,190.917631 C455.215794,190.017544 454.060729,189.567507 452.467511,189.567507 C450.749112,189.567507 448.968149,190.046027 447.124568,191.003082 L446.492974,189.533326 C448.530017,188.576271 450.544269,188.097751 452.535791,188.097751 C454.572834,188.097751 456.094903,188.627541 457.102044,189.687138 C458.109186,190.746735 458.612749,192.39877 458.612749,194.643292 L458.612749,206.999498 L457.366631,206.999498 Z M450.538589,205.803185 C452.518731,205.803185 454.08063,205.236366 455.224333,204.102711 C456.368036,202.969056 456.939878,201.393926 456.939878,199.377274 L456.939878,197.548624 L453.696559,197.685346 C451.09051,197.810674 449.232732,198.217986 448.123169,198.907294 C447.013607,199.596602 446.458834,200.670424 446.458834,202.128794 C446.458834,203.290933 446.814458,204.193855 447.525716,204.837589 C448.236974,205.481323 449.241255,205.803185 450.538589,205.803185 L450.538589,205.803185 Z M469.520546,205.837365 C470.590278,205.837365 471.523434,205.746218 472.320043,205.563922 L472.320043,206.931137 C471.500674,207.204581 470.556137,207.341301 469.486405,207.341301 C467.847667,207.341301 466.638547,206.902658 465.859008,206.025357 C465.079469,205.148056 464.689706,203.769462 464.689706,201.889532 L464.689706,189.89222 L461.941419,189.89222 L461.941419,188.900989 L464.689706,188.131931 L465.543211,183.927745 L466.413787,183.927745 L466.413787,188.422464 L471.85915,188.422464 L471.85915,189.89222 L466.413787,189.89222 L466.413787,201.650269 C466.413787,203.074458 466.664146,204.128343 467.164871,204.811954 C467.665597,205.495565 468.450814,205.837365 469.520546,205.837365 L469.520546,205.837365 Z M496.815643,206.999498 L487.512436,183.927745 L487.375875,183.927745 C487.466916,185.340541 487.512436,186.787496 487.512436,188.268652 L487.512436,206.999498 L485.839566,206.999498 L485.839566,182.013644 L488.536642,182.013644 L497.378956,203.991625 L497.481377,203.991625 L506.323691,182.013644 L508.952487,182.013644 L508.952487,206.999498 L507.194267,206.999498 L507.194267,188.06357 C507.194267,186.741922 507.262546,185.374721 507.399108,183.961925 L507.262547,183.961925 L497.9252,206.999498 L496.815643,206.999498 Z M526.841957,206.999498 L526.415205,204.059985 L526.278644,204.059985 C525.345473,205.256305 524.386712,206.10226 523.402331,206.597878 C522.41795,207.093496 521.25435,207.341301 519.911495,207.341301 C518.090674,207.341301 516.67387,206.874174 515.661039,205.939906 C514.648207,205.005638 514.141799,203.712493 514.141799,202.060434 C514.141799,200.248865 514.895721,198.841787 516.403588,197.839157 C517.911455,196.836528 520.093562,196.306737 522.949973,196.24977 L526.483485,196.147229 L526.483485,194.916735 C526.483485,193.15074 526.125016,191.817719 525.408068,190.917631 C524.69112,190.017544 523.536055,189.567507 521.942837,189.567507 C520.224438,189.567507 518.443475,190.046027 516.599894,191.003082 L515.9683,189.533326 C518.005343,188.576271 520.019595,188.097751 522.011118,188.097751 C524.04816,188.097751 525.570229,188.627541 526.577371,189.687138 C527.584512,190.746735 528.088075,192.39877 528.088075,194.643292 L528.088075,206.999498 L526.841957,206.999498 Z M520.013915,205.803185 C521.994057,205.803185 523.555956,205.236366 524.699659,204.102711 C525.843362,202.969056 526.415205,201.393926 526.415205,199.377274 L526.415205,197.548624 L523.171885,197.685346 C520.565836,197.810674 518.708058,198.217986 517.598495,198.907294 C516.488933,199.596602 515.93416,200.670424 515.93416,202.128794 C515.93416,203.290933 516.289784,204.193855 517.001042,204.837589 C517.7123,205.481323 518.716581,205.803185 520.013915,205.803185 L520.013915,205.803185 Z M538.995872,205.837365 C540.065604,205.837365 540.99876,205.746218 541.795369,205.563922 L541.795369,206.931137 C540.976,207.204581 540.031463,207.341301 538.961732,207.341301 C537.322993,207.341301 536.113873,206.902658 535.334334,206.025357 C534.554796,205.148056 534.165032,203.769462 534.165032,201.889532 L534.165032,189.89222 L531.416745,189.89222 L531.416745,188.900989 L534.165032,188.131931 L535.018537,183.927745 L535.889113,183.927745 L535.889113,188.422464 L541.334476,188.422464 L541.334476,189.89222 L535.889113,189.89222 L535.889113,201.650269 C535.889113,203.074458 536.139472,204.128343 536.640197,204.811954 C537.140923,205.495565 537.92614,205.837365 538.995872,205.837365 L538.995872,205.837365 Z M550.705964,205.837365 C551.775695,205.837365 552.708852,205.746218 553.505461,205.563922 L553.505461,206.931137 C552.686092,207.204581 551.741555,207.341301 550.671823,207.341301 C549.033085,207.341301 547.823965,206.902658 547.044426,206.025357 C546.264887,205.148056 545.875124,203.769462 545.875124,201.889532 L545.875124,189.89222 L543.126837,189.89222 L543.126837,188.900989 L545.875124,188.131931 L546.728629,183.927745 L547.599205,183.927745 L547.599205,188.422464 L553.044568,188.422464 L553.044568,189.89222 L547.599205,189.89222 L547.599205,201.650269 C547.599205,203.074458 547.849564,204.128343 548.350289,204.811954 C548.851015,205.495565 549.636232,205.837365 550.705964,205.837365 L550.705964,205.837365 Z M565.010711,207.341301 C562.313621,207.341301 560.211174,206.509587 558.703308,204.846134 C557.195441,203.182681 556.441519,200.852742 556.441519,197.856247 C556.441519,194.893934 557.169836,192.52127 558.626492,190.738185 C560.083148,188.955099 562.046191,188.06357 564.515678,188.06357 C566.700663,188.06357 568.424726,188.826924 569.68792,190.353655 C570.951114,191.880386 571.582702,193.953975 571.582702,196.574483 L571.582702,197.941698 L558.21681,197.941698 C558.23957,200.493846 558.834173,202.442108 560.000636,203.786542 C561.167099,205.130977 562.837107,205.803185 565.010711,205.803185 C566.069063,205.803185 566.999374,205.729128 567.801673,205.581012 C568.603972,205.432896 569.619633,205.113883 570.848687,204.623962 L570.848687,206.162078 C569.801715,206.617819 568.834419,206.928288 567.946769,207.093494 C567.059119,207.2587 566.080443,207.341301 565.010711,207.341301 L565.010711,207.341301 Z M564.515678,189.567507 C562.728998,189.567507 561.295124,190.157112 560.214012,191.336341 C559.1329,192.51557 558.501312,194.216026 558.31923,196.437762 L569.790341,196.437762 C569.790341,194.284388 569.323762,192.601021 568.390592,191.387612 C567.457422,190.174202 566.165797,189.567507 564.515678,189.567507 L564.515678,189.567507 Z M584.009738,188.06357 C584.794967,188.06357 585.637083,188.143324 586.536113,188.302833 L586.211781,189.926401 C585.437933,189.732711 584.635646,189.635867 583.804897,189.635867 C582.223059,189.635867 580.925744,190.308075 579.912913,191.65251 C578.900081,192.996944 578.393673,194.694553 578.393673,196.745385 L578.393673,206.999498 L576.703733,206.999498 L576.703733,188.422464 L578.137622,188.422464 L578.308323,191.772141 L578.427814,191.772141 C579.190282,190.404919 580.003949,189.44503 580.868839,188.892444 C581.733728,188.339859 582.780684,188.06357 584.009738,188.06357 L584.009738,188.06357 Z M601.813857,202.162975 C601.813857,203.826428 601.182269,205.105331 599.919075,205.999722 C598.655881,206.894113 596.863538,207.341301 594.541992,207.341301 C592.061125,207.341301 590.092392,206.959624 588.635736,206.196259 L588.635736,204.367609 C590.502077,205.301877 592.470809,205.769004 594.541992,205.769004 C596.374193,205.769004 597.765392,205.464232 598.715633,204.854679 C599.665874,204.245126 600.140987,203.43335 600.140987,202.419327 C600.140987,201.485059 599.762603,200.698918 599.005825,200.060882 C598.249046,199.422845 597.005786,198.796211 595.276007,198.180961 C593.421046,197.508744 592.118041,196.930531 591.366953,196.446307 C590.615865,195.962083 590.049712,195.415202 589.668478,194.805649 C589.287243,194.196096 589.096629,193.45268 589.096629,192.57538 C589.096629,191.185371 589.679852,190.085913 590.846315,189.276974 C592.012778,188.468034 593.642956,188.06357 595.7369,188.06357 C597.739802,188.06357 599.640255,188.439551 601.438315,189.191523 L600.806721,190.729639 C598.985901,189.977667 597.295977,189.601687 595.7369,189.601687 C594.223343,189.601687 593.022758,189.852341 592.135108,190.353655 C591.247458,190.85497 590.80364,191.549964 590.80364,192.438658 C590.80364,193.407107 591.147883,194.181854 591.836381,194.762924 C592.524879,195.343993 593.870558,195.993413 595.873461,196.711205 C597.546339,197.315061 598.763995,197.859093 599.526463,198.343318 C600.288932,198.827542 600.860774,199.377271 601.242009,199.992521 C601.623243,200.607771 601.813857,201.331248 601.813857,202.162975 L601.813857,202.162975 Z M620.573902,205.837365 C621.643634,205.837365 622.57679,205.746218 623.373399,205.563922 L623.373399,206.931137 C622.55403,207.204581 621.609494,207.341301 620.539762,207.341301 C618.901024,207.341301 617.691903,206.902658 616.912365,206.025357 C616.132826,205.148056 615.743062,203.769462 615.743062,201.889532 L615.743062,189.89222 L612.994776,189.89222 L612.994776,188.900989 L615.743062,188.131931 L616.596568,183.927745 L617.467143,183.927745 L617.467143,188.422464 L622.912506,188.422464 L622.912506,189.89222 L617.467143,189.89222 L617.467143,201.650269 C617.467143,203.074458 617.717502,204.128343 618.218228,204.811954 C618.718953,205.495565 619.50417,205.837365 620.573902,205.837365 L620.573902,205.837365 Z M640.324013,206.999498 L640.324013,194.950916 C640.324013,193.082379 639.931405,191.723723 639.146176,190.874906 C638.360947,190.026089 637.143292,189.601687 635.493174,189.601687 C633.274049,189.601687 631.64956,190.162809 630.619659,191.285071 C629.589757,192.407332 629.074814,194.227418 629.074814,196.745385 L629.074814,206.999498 L627.384874,206.999498 L627.384874,180.407166 L629.074814,180.407166 L629.074814,188.866809 L628.989464,191.242345 L629.108954,191.242345 C629.803142,190.125781 630.679399,189.316853 631.737751,188.815538 C632.796102,188.314224 634.110487,188.06357 635.680945,188.06357 C639.891592,188.06357 641.996884,190.325149 641.996884,194.848375 L641.996884,206.999498 L640.324013,206.999498 Z M655.499336,207.341301 C652.802246,207.341301 650.699799,206.509587 649.191933,204.846134 C647.684066,203.182681 646.930144,200.852742 646.930144,197.856247 C646.930144,194.893934 647.658461,192.52127 649.115117,190.738185 C650.571773,188.955099 652.534816,188.06357 655.004303,188.06357 C657.189288,188.06357 658.913351,188.826924 660.176545,190.353655 C661.439739,191.880386 662.071327,193.953975 662.071327,196.574483 L662.071327,197.941698 L648.705435,197.941698 C648.728195,200.493846 649.322798,202.442108 650.489261,203.786542 C651.655724,205.130977 653.325732,205.803185 655.499336,205.803185 C656.557688,205.803185 657.488,205.729128 658.290298,205.581012 C659.092597,205.432896 660.108258,205.113883 661.337312,204.623962 L661.337312,206.162078 C660.29034,206.617819 659.323044,206.928288 658.435394,207.093494 C657.547744,207.2587 656.569068,207.341301 655.499336,207.341301 L655.499336,207.341301 Z M655.004303,189.567507 C653.217623,189.567507 651.783749,190.157112 650.702637,191.336341 C649.621525,192.51557 648.989937,194.216026 648.807855,196.437762 L660.278966,196.437762 C660.278966,194.284388 659.812387,192.601021 658.879217,191.387612 C657.946047,190.174202 656.654422,189.567507 655.004303,189.567507 L655.004303,189.567507 Z M687.676484,206.999498 L678.373277,183.927745 L678.236716,183.927745 C678.327757,185.340541 678.373277,186.787496 678.373277,188.268652 L678.373277,206.999498 L676.700406,206.999498 L676.700406,182.013644 L679.397483,182.013644 L688.239797,203.991625 L688.342218,203.991625 L697.184532,182.013644 L699.813328,182.013644 L699.813328,206.999498 L698.055107,206.999498 L698.055107,188.06357 C698.055107,186.741922 698.123387,185.374721 698.259949,183.961925 L698.123388,183.961925 L688.786041,206.999498 L687.676484,206.999498 Z M721.782553,197.685346 C721.782553,200.716021 721.048546,203.082988 719.580509,204.786318 C718.112473,206.489649 716.086841,207.341301 713.503552,207.341301 C711.876194,207.341301 710.44232,206.948231 709.201886,206.162078 C707.961452,205.375926 707.011226,204.247985 706.351178,202.778221 C705.691131,201.308458 705.361112,199.61085 705.361112,197.685346 C705.361112,194.654671 706.095119,192.2934 707.563156,190.601463 C709.031192,188.909526 711.045444,188.06357 713.605973,188.06357 C716.155121,188.06357 718.155148,188.920919 719.606115,190.635643 C721.057081,192.350367 721.782553,194.700245 721.782553,197.685346 L721.782553,197.685346 Z M707.136403,197.685346 C707.136403,200.237493 707.696866,202.22848 708.817808,203.658366 C709.938751,205.088252 711.52341,205.803185 713.571833,205.803185 C715.620255,205.803185 717.204914,205.088252 718.325857,203.658366 C719.446799,202.22848 720.007262,200.237493 720.007262,197.685346 C720.007262,195.121805 719.441109,193.133666 718.308787,191.72087 C717.176464,190.308074 715.586115,189.601687 713.537692,189.601687 C711.48927,189.601687 709.910301,190.305226 708.800738,191.712325 C707.691176,193.119424 707.136403,195.110411 707.136403,197.685346 L707.136403,197.685346 Z M738.425905,202.162975 C738.425905,203.826428 737.794317,205.105331 736.531123,205.999722 C735.267929,206.894113 733.475586,207.341301 731.15404,207.341301 C728.673173,207.341301 726.70444,206.959624 725.247784,206.196259 L725.247784,204.367609 C727.114125,205.301877 729.082857,205.769004 731.15404,205.769004 C732.986241,205.769004 734.37744,205.464232 735.327681,204.854679 C736.277922,204.245126 736.753035,203.43335 736.753035,202.419327 C736.753035,201.485059 736.374651,200.698918 735.617873,200.060882 C734.861094,199.422845 733.617834,198.796211 731.888055,198.180961 C730.033094,197.508744 728.730089,196.930531 727.979001,196.446307 C727.227913,195.962083 726.66176,195.415202 726.280525,194.805649 C725.899291,194.196096 725.708677,193.45268 725.708677,192.57538 C725.708677,191.185371 726.2919,190.085913 727.458363,189.276974 C728.624826,188.468034 730.255004,188.06357 732.348948,188.06357 C734.35185,188.06357 736.252303,188.439551 738.050363,189.191523 L737.418769,190.729639 C735.597949,189.977667 733.908025,189.601687 732.348948,189.601687 C730.835391,189.601687 729.634805,189.852341 728.747156,190.353655 C727.859506,190.85497 727.415687,191.549964 727.415687,192.438658 C727.415687,193.407107 727.759931,194.181854 728.448429,194.762924 C729.136926,195.343993 730.482606,195.993413 732.485509,196.711205 C734.158387,197.315061 735.376042,197.859093 736.138511,198.343318 C736.900979,198.827542 737.472822,199.377271 737.854056,199.992521 C738.235291,200.607771 738.425905,201.331248 738.425905,202.162975 L738.425905,202.162975 Z M748.104654,205.837365 C749.174386,205.837365 750.107543,205.746218 750.904152,205.563922 L750.904152,206.931137 C750.084782,207.204581 749.140246,207.341301 748.070514,207.341301 C746.431776,207.341301 745.222656,206.902658 744.443117,206.025357 C743.663578,205.148056 743.273815,203.769462 743.273815,201.889532 L743.273815,189.89222 L740.525528,189.89222 L740.525528,188.900989 L743.273815,188.131931 L744.12732,183.927745 L744.997895,183.927745 L744.997895,188.422464 L750.443259,188.422464 L750.443259,189.89222 L744.997895,189.89222 L744.997895,201.650269 C744.997895,203.074458 745.248254,204.128343 745.74898,204.811954 C746.249705,205.495565 747.034922,205.837365 748.104654,205.837365 L748.104654,205.837365 Z" id="Protecting-What-Matt" sketch:type="MSShapeGroup"></path>
            <path d="M222.342991,149.498342 L222.342991,144.883992 L228.305335,143.85858 L228.305335,101.853342 L222.342991,100.82793 L222.342991,96.1769581 L228.305335,96.1769581 L235.511357,96.1769581 L241.473701,96.1769581 L241.473701,100.82793 L235.511357,101.853342 L235.511357,143.85858 L254.020228,143.85858 L254.56891,137.742735 L260.714148,137.742735 L260.714148,149.498342 L222.342991,149.498342 Z M266.859385,144.883992 L272.821729,143.85858 L272.821729,115.549906 L266.859385,114.524495 L266.859385,109.873522 L280.027752,109.873522 L280.027752,143.85858 L285.990096,144.883992 L285.990096,149.498342 L266.859385,149.498342 L266.859385,144.883992 Z M280.027752,99.7292756 L272.821729,99.7292756 L272.821729,92.3682878 L280.027752,92.3682878 L280.027752,99.7292756 Z M327.689923,131.187427 C327.689923,136.900461 326.318232,141.508662 323.574808,145.012168 C320.831385,148.515674 317.05771,150.267401 312.253671,150.267401 C309.668756,150.267401 307.425279,149.773011 305.523173,148.784216 C303.621066,147.795422 302.036,146.336667 300.767929,144.407908 L300.109511,149.498342 L293.891115,149.498342 L293.891115,98.0446714 L287.928772,97.0192602 L287.928772,92.3682878 L301.097138,92.3682878 L301.097138,114.561117 C302.340824,112.80326 303.883214,111.460473 305.724356,110.532715 C307.565498,109.604958 309.717529,109.141086 312.180513,109.141086 C317.057711,109.141086 320.861867,111.094231 323.593098,115.000579 C326.324328,118.906927 327.689923,124.046139 327.689923,130.418369 L327.689923,131.187427 Z M320.447321,130.418369 C320.447321,125.852825 319.61821,122.14185 317.959963,119.285333 C316.301716,116.428816 313.765612,115.000579 310.351574,115.000579 C308.132449,115.000579 306.260853,115.537693 304.736728,116.611939 C303.212604,117.686185 301.99942,119.126629 301.097138,120.933315 L301.097138,138.43855 C301.99942,140.26965 303.224797,141.722302 304.773307,142.796547 C306.321817,143.870793 308.205606,144.407908 310.424731,144.407908 C313.814383,144.407908 316.332198,143.1994 317.978253,140.782347 C319.624307,138.365294 320.447321,135.167019 320.447321,131.187427 L320.447321,130.418369 Z M352.929292,150.267401 C347.418059,150.267401 343.034744,148.430224 339.779215,144.755815 C336.523686,141.081407 334.895946,136.314513 334.895946,130.454991 L334.895946,128.84363 C334.895946,123.20384 336.572457,118.510189 339.92553,114.762537 C343.278603,111.014884 347.247363,109.141086 351.831928,109.141086 C357.148073,109.141086 361.177797,110.75243 363.92122,113.975167 C366.664643,117.197904 368.036335,121.494823 368.036335,126.866051 L368.036335,131.370536 L342.35802,131.370536 L342.248284,131.553646 C342.321441,135.362335 343.284673,138.49347 345.138008,140.947145 C346.991343,143.40082 349.588412,144.627639 352.929292,144.627639 C355.36789,144.627639 357.507729,144.279735 359.348871,143.583917 C361.190012,142.888098 362.781174,141.929837 364.122403,140.709103 L366.938971,145.396697 C365.524584,146.763919 363.652987,147.917495 361.324126,148.85746 C358.995264,149.797425 356.197014,150.267401 352.929292,150.267401 L352.929292,150.267401 Z M351.831928,114.817469 C349.417715,114.817469 347.357131,115.836767 345.650112,117.875392 C343.943093,119.914018 342.894511,122.471416 342.504335,125.547666 L342.577493,125.730775 L360.830312,125.730775 L360.830312,124.778607 C360.830312,121.946505 360.074358,119.578317 358.562426,117.673972 C357.050495,115.769627 354.807018,114.817469 351.831928,114.817469 L351.831928,114.817469 Z M375.132621,114.524495 L375.132621,109.873522 L387.532833,109.873522 L388.22783,115.62315 C389.349585,113.596732 390.733469,112.009802 392.379523,110.862312 C394.025577,109.714822 395.909366,109.141086 398.030947,109.141086 C398.591825,109.141086 399.170983,109.183811 399.76844,109.269262 C400.365897,109.354714 400.823127,109.446267 401.140145,109.543926 L400.189096,116.245721 L396.092271,116.02599 C394.190164,116.02599 392.592906,116.471551 391.300449,117.362687 C390.007991,118.253822 389.008181,119.505056 388.300987,121.116424 L388.300987,143.85858 L394.263331,144.883992 L394.263331,149.498342 L375.132621,149.498342 L375.132621,144.883992 L381.094965,143.85858 L381.094965,115.549906 L375.132621,114.524495 Z M419.868488,100.315225 L419.868488,109.873522 L427.367141,109.873522 L427.367141,115.22031 L419.868488,115.22031 L419.868488,139.280852 C419.868488,141.136367 420.252562,142.442532 421.02072,143.199387 C421.788879,143.956242 422.806978,144.334664 424.07505,144.334664 C424.709085,144.334664 425.422365,144.279732 426.214909,144.169866 C427.007454,144.06 427.671962,143.944032 428.208454,143.821959 L429.196081,148.765906 C428.513274,149.20537 427.513463,149.565481 426.19662,149.84625 C424.879777,150.127018 423.562953,150.267401 422.24611,150.267401 C419.319792,150.267401 416.990965,149.382382 415.25956,147.612318 C413.528155,145.842254 412.662465,143.065126 412.662465,139.280852 L412.662465,115.22031 L406.407491,115.22031 L406.407491,109.873522 L412.662465,109.873522 L412.662465,100.315225 L419.868488,100.315225 Z M472.322481,114.524495 L468.774338,115.073822 L453.703874,155.577566 C452.704049,158.238765 451.265297,160.558125 449.387576,162.535713 C447.509855,164.513302 444.985944,165.502082 441.815766,165.502082 C441.254888,165.502082 440.523319,165.434942 439.621038,165.300662 C438.718756,165.166381 438.023766,165.038206 437.536047,164.916132 L438.267622,159.239749 C438.121307,159.215334 438.554151,159.239748 439.56617,159.312992 C440.578188,159.386236 441.218311,159.422858 441.486557,159.422858 C443.022874,159.422858 444.26654,158.757568 445.217594,157.426968 C446.168647,156.096368 446.997758,154.564371 447.704952,152.830929 L449.424155,148.729284 L436.365525,115.110444 L432.744224,114.524495 L432.744224,109.873522 L448.729158,109.873522 L448.729158,114.524495 L444.266545,115.256931 L451.10678,134.812988 L452.423616,139.866801 L452.643089,139.866801 L460.873318,115.256931 L456.374126,114.524495 L456.374126,109.873522 L472.322481,109.873522 L472.322481,114.524495 Z M495.14765,100.82793 L495.14765,96.1769581 L514.27836,96.1769581 L514.27836,100.82793 L508.316016,101.853342 L508.316016,143.85858 L514.27836,144.883992 L514.27836,149.498342 L495.14765,149.498342 L495.14765,144.883992 L501.109994,143.85858 L501.109994,101.853342 L495.14765,100.82793 Z M518.997025,144.883992 L524.959369,143.85858 L524.959369,115.549906 L518.997025,114.524495 L518.997025,109.873522 L531.397237,109.873522 L531.90934,115.769637 C533.226183,113.669975 534.878309,112.04032 536.865767,110.880623 C538.853224,109.720926 541.114991,109.141086 543.651133,109.141086 C547.918681,109.141086 551.222932,110.392319 553.563987,112.894823 C555.905041,115.397328 557.075551,119.260892 557.075551,124.485632 L557.075551,143.85858 L563.037895,144.883992 L563.037895,149.498342 L543.907185,149.498342 L543.907185,144.883992 L549.869528,143.85858 L549.869528,124.63212 C549.869528,121.140821 549.180635,118.662769 547.802826,117.197888 C546.425018,115.733008 544.321759,115.000579 541.492984,115.000579 C539.420175,115.000579 537.585158,115.501072 535.987875,116.502074 C534.390593,117.503075 533.116445,118.870277 532.165391,120.603719 L532.165391,143.85858 L538.127735,144.883992 L538.127735,149.498342 L518.997025,149.498342 L518.997025,144.883992 Z M598.555906,122.324945 L593.142244,122.324945 L591.971722,117.564107 C591.093827,116.734008 589.990378,116.068718 588.661341,115.568217 C587.332305,115.067716 585.826493,114.817469 584.14386,114.817469 C581.583332,114.817469 579.681253,115.378999 578.437568,116.502074 C577.193883,117.625149 576.572049,118.980143 576.572049,120.567097 C576.572049,122.129636 577.120726,123.362558 578.218095,124.265901 C579.315465,125.169244 581.546749,125.974917 584.912015,126.682942 C589.911142,127.757188 593.629949,129.215943 596.068548,131.059251 C598.507146,132.902559 599.726427,135.374508 599.726427,138.475171 C599.726427,141.990885 598.305965,144.835152 595.464997,147.008058 C592.62403,149.180964 588.911319,150.267401 584.326754,150.267401 C581.327278,150.267401 578.632667,149.919497 576.24284,149.223678 C573.853014,148.52786 571.719272,147.52077 569.841551,146.202377 L569.804972,137.156786 L575.218634,137.156786 L576.572049,142.466951 C577.401173,143.223806 578.529008,143.773128 579.955588,144.114933 C581.382168,144.456739 582.839209,144.627639 584.326754,144.627639 C586.887283,144.627639 588.893,144.108835 590.343966,143.071211 C591.794932,142.033587 592.520404,140.67249 592.520404,138.987877 C592.520404,137.400923 591.91686,136.094758 590.709754,135.069341 C589.502648,134.043925 587.216496,133.152803 583.85123,132.395948 C579.047191,131.346117 575.425926,129.91788 572.987327,128.111194 C570.548729,126.304508 569.329448,123.863077 569.329448,120.786828 C569.329448,117.564091 570.701139,114.817481 573.444562,112.546916 C576.187986,110.276351 579.754383,109.141086 584.14386,109.141086 C587.143336,109.141086 589.837947,109.531715 592.227774,110.312984 C594.617601,111.094254 596.605029,112.180691 598.190118,113.572327 L598.555906,122.324945 Z M634.768913,143.638849 C633.525228,145.762926 631.921874,147.398685 629.958802,148.546175 C627.99573,149.693664 625.733964,150.267401 623.173435,150.267401 C618.881502,150.267401 615.528479,148.887992 613.114266,146.129134 C610.700054,143.370275 609.492966,139.073357 609.492966,133.23825 L609.492966,115.549906 L604.957195,114.524495 L604.957195,109.873522 L609.492966,109.873522 L616.698988,109.873522 L616.698988,133.311493 C616.698988,137.535232 617.320822,140.440535 618.564507,142.027489 C619.808192,143.614443 621.746849,144.407908 624.380535,144.407908 C626.941064,144.407908 629.056517,143.889104 630.726957,142.85148 C632.397397,141.813856 633.659352,140.342894 634.512862,138.43855 L634.512862,115.549906 L629.208937,114.524495 L629.208937,109.873522 L634.512862,109.873522 L641.718885,109.873522 L641.718885,143.85858 L646.254655,144.883992 L646.254655,149.498342 L635.244438,149.498342 L634.768913,143.638849 Z M651.960947,114.524495 L651.960947,109.873522 L664.361159,109.873522 L665.056156,115.62315 C666.177912,113.596732 667.561796,112.009802 669.20785,110.862312 C670.853904,109.714822 672.737693,109.141086 674.859274,109.141086 C675.420151,109.141086 675.99931,109.183811 676.596766,109.269262 C677.194223,109.354714 677.651453,109.446267 677.968471,109.543926 L677.017423,116.245721 L672.920597,116.02599 C671.018491,116.02599 669.421232,116.471551 668.128775,117.362687 C666.836318,118.253822 665.836508,119.505056 665.129314,121.116424 L665.129314,143.85858 L671.091658,144.883992 L671.091658,149.498342 L651.960947,149.498342 L651.960947,144.883992 L657.923291,143.85858 L657.923291,115.549906 L651.960947,114.524495 Z M708.767817,149.498342 C708.548343,148.424096 708.377644,147.459731 708.255714,146.605218 C708.133784,145.750704 708.048435,144.896203 707.999663,144.04169 C706.609661,145.823961 704.872186,147.30713 702.787184,148.491242 C700.702182,149.675354 698.476995,150.267401 696.111554,150.267401 C691.990322,150.267401 688.85677,149.26031 686.710803,147.2461 C684.564837,145.231889 683.491869,142.393725 683.491869,138.731524 C683.491869,134.971664 685.009874,132.072465 688.04593,130.03384 C691.081985,127.995214 695.245829,126.975917 700.537588,126.975917 L707.963084,126.975917 L707.963084,122.361566 C707.963084,120.042172 707.231515,118.204995 705.768356,116.849981 C704.305197,115.494967 702.268998,114.817469 699.659697,114.817469 C697.855134,114.817469 696.263973,115.049405 694.886164,115.513284 C693.508356,115.977163 692.392714,116.611935 691.539205,117.417619 L690.77105,121.592508 L685.211073,121.592508 L685.211073,113.901924 C687.015636,112.461458 689.198149,111.307882 691.758677,110.441161 C694.319206,109.57444 697.099166,109.141086 700.098643,109.141086 C704.585664,109.141086 708.219122,110.288558 710.999124,112.583538 C713.779126,114.878517 715.169107,118.162242 715.169107,122.43481 L715.169107,141.514783 C715.169107,142.027491 715.175203,142.527985 715.187396,143.016278 C715.199589,143.504572 715.230071,143.992858 715.278843,144.481151 L718.205147,144.883992 L718.205147,149.498342 L708.767817,149.498342 Z M697.172339,144.224799 C699.562166,144.224799 701.744679,143.651062 703.719944,142.503573 C705.695208,141.356083 707.109574,139.976674 707.963084,138.365306 L707.963084,131.84662 L700.281537,131.84662 C697.330832,131.84662 694.995909,132.530221 693.276697,133.897443 C691.557485,135.264664 690.697892,136.924838 690.697892,138.878012 C690.697892,140.611453 691.234376,141.93593 692.307359,142.85148 C693.380343,143.76703 695.001986,144.224799 697.172339,144.224799 L697.172339,144.224799 Z M723.143284,144.883992 L729.105628,143.85858 L729.105628,115.549906 L723.143284,114.524495 L723.143284,109.873522 L735.543496,109.873522 L736.055599,115.769637 C737.372442,113.669975 739.024568,112.04032 741.012026,110.880623 C742.999484,109.720926 745.26125,109.141086 747.797392,109.141086 C752.06494,109.141086 755.369191,110.392319 757.710246,112.894823 C760.051301,115.397328 761.221811,119.260892 761.221811,124.485632 L761.221811,143.85858 L767.184154,144.883992 L767.184154,149.498342 L748.053444,149.498342 L748.053444,144.883992 L754.015788,143.85858 L754.015788,124.63212 C754.015788,121.140821 753.326894,118.662769 751.949086,117.197888 C750.571278,115.733008 748.468018,115.000579 745.639244,115.000579 C743.566435,115.000579 741.731417,115.501072 740.134135,116.502074 C738.536853,117.503075 737.262704,118.870277 736.311651,120.603719 L736.311651,143.85858 L742.273994,144.883992 L742.273994,149.498342 L723.143284,149.498342 L723.143284,144.883992 Z M789.826429,144.627639 C792.216255,144.627639 794.319515,143.889106 796.136271,142.412018 C797.953027,140.93493 798.861391,139.122168 798.861391,136.973676 L805.335838,136.973676 L805.408996,137.193407 C805.530926,140.611462 804.012921,143.64494 800.854936,146.293932 C797.696951,148.942924 794.020818,150.267401 789.826429,150.267401 C784.071336,150.267401 779.675828,148.387499 776.639773,144.627639 C773.603718,140.867779 772.085713,136.14361 772.085713,130.454991 L772.085713,128.916874 C772.085713,123.277084 773.609814,118.571226 776.658062,114.799159 C779.706311,111.027091 784.095722,109.141086 789.826429,109.141086 C792.996607,109.141086 795.843628,109.665993 798.367578,110.715825 C800.891527,111.765656 802.982594,113.2061 804.640841,115.0372 L804.97005,123.82644 L799.227179,123.82644 L797.654291,117.600728 C796.800782,116.77063 795.703429,116.099236 794.3622,115.586528 C793.02097,115.07382 791.509062,114.817469 789.826429,114.817469 C786.046601,114.817469 783.345894,116.178567 781.724226,118.900803 C780.102558,121.62304 779.291736,124.961696 779.291736,128.916874 L779.291736,130.454991 C779.291736,134.507827 780.096461,137.883105 781.705936,140.580927 C783.315411,143.278748 786.022215,144.627639 789.826429,144.627639 L789.826429,144.627639 Z M830.50205,150.267401 C824.990817,150.267401 820.607502,148.430224 817.351973,144.755815 C814.096444,141.081407 812.468703,136.314513 812.468703,130.454991 L812.468703,128.84363 C812.468703,123.20384 814.145215,118.510189 817.498288,114.762537 C820.851361,111.014884 824.820121,109.141086 829.404686,109.141086 C834.720831,109.141086 838.750554,110.75243 841.493978,113.975167 C844.237401,117.197904 845.609092,121.494823 845.609092,126.866051 L845.609092,131.370536 L819.930778,131.370536 L819.821041,131.553646 C819.894199,135.362335 820.857431,138.49347 822.710766,140.947145 C824.564101,143.40082 827.16117,144.627639 830.50205,144.627639 C832.940648,144.627639 835.080486,144.279735 836.921628,143.583917 C838.76277,142.888098 840.353932,141.929837 841.695161,140.709103 L844.511729,145.396697 C843.097341,146.763919 841.225745,147.917495 838.896883,148.85746 C836.568022,149.797425 833.769772,150.267401 830.50205,150.267401 L830.50205,150.267401 Z M829.404686,114.817469 C826.990473,114.817469 824.929888,115.836767 823.222869,117.875392 C821.51585,119.914018 820.467269,122.471416 820.077093,125.547666 L820.150251,125.730775 L838.40307,125.730775 L838.40307,124.778607 C838.40307,121.946505 837.647115,119.578317 836.135184,117.673972 C834.623253,115.769627 832.379776,114.817469 829.404686,114.817469 L829.404686,114.817469 Z" id="Liberty-Insurance" sketch:type="MSShapeGroup"></path>
            <path d="M173.101893,141.777184 C173.697558,145.677372 174.006497,149.672041 174.006497,153.738952 C174.006497,160.740335 173.090885,167.527613 171.373001,173.987313 L171.373001,173.987313 C169.123444,172.62266 162.430796,168.383958 160.463796,165.117649 C158.086955,161.170775 156.667191,155.396267 154.647709,155.252617 C152.628227,155.108968 150.335755,157.907718 148.245339,156.765514 C146.154922,155.623309 139.455379,150.129107 132.522074,147.479924 C125.58877,144.830741 109.576932,141.339566 104.744791,140.819306 C99.9126511,140.299046 97.5492445,138.374569 96.9989652,137.548179 C96.4486858,136.721789 96.1735462,135.178226 96.1735462,135.178226 C96.1735462,135.178226 94.740348,137.659548 93.360888,139.375276 C91.9814281,141.091003 86.2609952,145.431165 83.0662583,148.874457 C79.8715215,152.317749 75.0168112,159.289339 75.6853146,162.900491 C76.353818,166.511644 76.6595884,166.89471 77.8536515,167.032442 C79.0477146,167.170173 82.6965394,165.836436 84.2141066,165.836436 C85.7316737,165.836436 86.1304113,165.649745 86.6866018,167.066875 C87.2427923,168.484004 84.6327273,175.011195 83.8207428,178.89243 C83.0087584,182.773666 81.4379904,191.452375 81.4379904,192.804944 C81.4379904,194.157512 81.9157231,196.064773 81.9157231,196.064773 C81.9157231,196.064773 82.2784561,193.685135 83.3602063,193.313905 C84.4419566,192.942675 87.3497314,192.326649 88.2708044,192.83561 C89.1918774,193.344572 91.7406809,195.072674 93.1335754,195.443366 C94.5264699,195.814058 97.2660441,196.40695 97.6787536,197.053643 C98.0914631,197.700336 95.6802294,199.573702 94.1803958,199.854546 C92.6805622,200.135389 91.778835,199.897049 91.2704715,200.040161 C90.762108,200.183272 90.0995158,200.692772 89.6868063,200.973616 C89.2740968,201.254459 88.6045187,201.116727 87.9591227,201.254459 C87.3137268,201.392191 86.501205,204.973752 86.501205,205.859324 C86.501205,206.744896 86.2566961,209.328978 86.2566961,209.328978 C86.2566961,209.328978 89.1961764,210.184421 89.8415724,210.04669 C90.4869683,209.908958 92.3860768,207.493273 93.5747661,207.068242 C94.7634554,206.643211 102.691992,207.540619 104.282105,207.965112 C105.872219,208.389605 109.217423,209.807273 109.217423,209.807273 C109.217423,209.807273 104.878062,210.901594 103.061173,210.901594 C101.244284,210.901594 97.6019079,210.859091 96.3412094,211.278205 C95.0805109,211.697318 92.339862,213.818708 91.4193264,214.094172 C91.4193264,214.094172 87.9655713,214.380933 86.9010173,214.889895 C85.8364633,215.398856 84.5886619,216.975777 84.5886619,218.417655 C84.5886619,219.859534 85.3302493,221.13947 85.3302493,221.13947 C85.3302493,221.13947 88.8914808,220.343746 89.9673198,220.343746 C91.0431589,220.343746 93.951471,219.668538 95.330931,219.004629 C96.7103909,218.340719 98.8830269,217.054865 100.604262,216.684173 C102.325497,216.313481 104.679768,216.696009 104.679768,216.696009 C104.679768,216.696009 102.673721,218.453702 101.120149,218.884113 C101.120149,218.884113 93.3189722,221.420313 92.1533904,221.701695 C90.9878085,221.983076 89.3982321,222.245089 89.1650083,222.796016 C88.9317844,223.346943 88.6937241,226.048851 89.1709195,227.628461 C89.1709195,227.628461 89.3300662,230.435026 89.5582057,232 C72.5314063,230.699175 57.0257034,223.953047 44.7748722,213.497429 L21.6853951,219.214992 L38.7415966,207.771874 L38.7415966,207.771874 C28.518161,196.990592 21.3212967,183.304658 18.5137664,168.078438 L18.5137664,168.078438 L2.71956709,167.774364 C2.71956709,167.774364 10.9915441,167.04189 15.1275326,166.675653 C33.0912061,165.084991 51.0548796,163.494329 69.0185532,161.903667 C69.0185532,161.903667 69.0185517,161.969189 69.0185517,163.571933 C69.0185517,165.174678 69.7886203,169.065598 69.7886203,169.065598 L18.5137664,168.078438 L18.5137664,168.078438 L2.71956709,167.774364 L17.8886449,164.124069 C17.4400141,160.72612 17.2084931,157.259605 17.2084931,153.738952 C17.2084931,138.467453 21.5646879,124.214596 29.1008768,112.157963 L68.0329928,140.800476 C68.0329928,140.800476 67.7460308,143.491623 68.636473,145.14279 C69.5269152,146.793956 72.3449472,150.577273 72.3449472,150.577273 C72.3449472,150.577273 73.7668603,141.949674 81.004323,135.151325 C88.2417857,128.352975 96.3933355,130.1833 96.3933355,130.1833 C96.3933355,130.1833 96.8420496,127.840248 103.464747,123.463501 C110.087445,119.086754 125.58877,119.983624 142.969858,123.511384 C156.985975,126.356172 168.982272,137.549688 173.101893,141.777184 Z M156.236922,103.972956 C154.234456,101.530494 152.087632,99.2111931 149.809505,97.0281221 L149.809505,97.0281221 L151.166349,2.80755771 L150.811626,6.79349143 L144.693772,99.8305293 C144.693772,99.8305293 150.756775,101.575598 156.236922,103.972956 Z M131.981096,84.1887646 C121.110127,78.478312 108.735641,75.247716 95.607495,75.247716 C94.7974073,75.247716 93.9901891,75.260017 93.1860169,75.2844425 L46.5583423,0.436858771 L99.7806188,102.951873 C99.7806188,102.951873 112.444403,97.9998194 117.097057,97.4316763 C121.749712,96.8635331 128.928063,97.234763 128.928063,97.234763 L131.981096,84.1887646 Z M74.7988004,78.0424556 C58.0353581,82.6510762 43.5175152,92.6919133 33.2515604,106.156318 L33.2515604,106.156318 L0,90.6598123 L1.11140156,91.3889365 L70.6556674,132.111082 C70.6556674,132.111082 78.1110576,119.520394 80.1176425,116.853995 C82.1242274,114.187595 86.7709708,110.84545 86.7709708,110.84545 L74.7988071,78.0424537 Z M95.5254633,164.820665 C95.5254633,163.552565 97.0484043,162.057961 98.7089151,161.687269 C100.369426,161.316577 107.726043,160.246698 113.870078,160.312104 C121.400414,160.392269 126.554983,161.448929 130.269368,162.40498 C133.983754,163.361032 141.250773,167.41497 141.991823,168.120845 C142.732872,168.82672 141.655065,169.74008 140.732199,170.064153 C139.075987,170.645746 135.678657,169.217182 132.728429,170.435383 C131.713033,170.854657 128.244513,174.489321 125.496878,175.541139 C125.496878,175.541139 116.405984,179.034466 109.12983,177.951443 C101.853675,176.868421 95.5254633,166.088765 95.5254633,164.820665 Z M73.4648515,206.393034 L21.6853951,219.214992 L70.0981524,197.692804 C70.0981524,197.692804 70.7419362,200.362969 71.4835236,202.517179 C72.2251109,204.671388 73.4648515,206.393034 73.4648515,206.393034 Z" id="Path-15" sketch:type="MSShapeGroup"></path>
        </g>
    </g>
</svg>